<svg width="30" height="30" viewBox="0 0 30 30" fill="none" xmlns="http://www.w3.org/2000/svg">
<path d="M27.0381 20.5635H9.5918L10.4678 18.7793L25.0225 18.7529C25.5146 18.7529 25.9365 18.4014 26.0244 17.915L28.04 6.63281C28.0928 6.33691 28.0137 6.03223 27.8203 5.80078C27.7247 5.68688 27.6055 5.59512 27.471 5.53189C27.3364 5.46865 27.1897 5.43544 27.041 5.43457L8.52539 5.37305L8.36719 4.62891C8.26758 4.1543 7.83984 3.80859 7.35352 3.80859H2.82715C2.55287 3.80859 2.28982 3.91755 2.09587 4.1115C1.90193 4.30544 1.79297 4.56849 1.79297 4.84277C1.79297 5.11706 1.90193 5.3801 2.09587 5.57405C2.28982 5.768 2.55287 5.87695 2.82715 5.87695H6.51562L7.20703 9.16406L8.90918 17.4053L6.71777 20.9824C6.60397 21.136 6.53543 21.3184 6.51989 21.5089C6.50436 21.6995 6.54246 21.8905 6.62988 22.0605C6.80566 22.4092 7.16016 22.6289 7.55273 22.6289H9.39258C9.00035 23.1499 8.78849 23.7844 8.78906 24.4365C8.78906 26.0947 10.1367 27.4424 11.7949 27.4424C13.4531 27.4424 14.8008 26.0947 14.8008 24.4365C14.8008 23.7832 14.584 23.1475 14.1973 22.6289H18.917C18.5248 23.1499 18.3129 23.7844 18.3135 24.4365C18.3135 26.0947 19.6611 27.4424 21.3193 27.4424C22.9775 27.4424 24.3252 26.0947 24.3252 24.4365C24.3252 23.7832 24.1084 23.1475 23.7217 22.6289H27.041C27.6094 22.6289 28.0752 22.166 28.0752 21.5947C28.0735 21.3207 27.9635 21.0585 27.7692 20.8653C27.5749 20.6721 27.3121 20.5636 27.0381 20.5635ZM8.95606 7.41211L25.8252 7.46777L24.1728 16.7197L10.9219 16.7432L8.95606 7.41211ZM11.7949 25.3623C11.2852 25.3623 10.8691 24.9463 10.8691 24.4365C10.8691 23.9268 11.2852 23.5107 11.7949 23.5107C12.3047 23.5107 12.7207 23.9268 12.7207 24.4365C12.7207 24.6821 12.6232 24.9175 12.4495 25.0912C12.2759 25.2648 12.0405 25.3623 11.7949 25.3623ZM21.3193 25.3623C20.8096 25.3623 20.3936 24.9463 20.3936 24.4365C20.3936 23.9268 20.8096 23.5107 21.3193 23.5107C21.8291 23.5107 22.2451 23.9268 22.2451 24.4365C22.2451 24.6821 22.1476 24.9175 21.974 25.0912C21.8003 25.2648 21.5649 25.3623 21.3193 25.3623Z" fill="#9A9A9A"/>
</svg>
