<?xml version="1.0" encoding="iso-8859-1"?>
<!-- Generator: Adobe Illustrator 18.0.0, SVG Export Plug-In . SVG Version: 6.00 Build 0)  -->
<!DOCTYPE svg PUBLIC "-//W3C//DTD SVG 1.1//EN" "http://www.w3.org/Graphics/SVG/1.1/DTD/svg11.dtd">
<svg version="1.1" id="Capa_1" xmlns="http://www.w3.org/2000/svg" xmlns:xlink="http://www.w3.org/1999/xlink" x="0px" y="0px"
	 viewBox="0 0 60.013 60.013" style="enable-background:new 0 0 60.013 60.013;" xml:space="preserve">
<path d="M11.682,13.519l-0.835-5.012h-2.99c-0.447-1.72-1.999-3-3.858-3c-2.206,0-4,1.794-4,4s1.794,4,4,4
	c1.859,0,3.411-1.28,3.858-3h1.294l0.502,3.013H9.615l5.196,26.146C12.629,40.202,11,42.161,11,44.506c0,2.757,2.243,5,5,5h1.09
	c0.478,2.833,2.942,5,5.91,5c3.309,0,6-2.691,6-6h11c0,3.309,2.691,6,6,6s6-2.691,6-6h4c0.553,0,1-0.447,1-1s-0.447-1-1-1h-4.35
	c-0.826-2.327-3.043-4-5.65-4s-4.824,1.673-5.65,4h-11.7c-0.826-2.327-3.043-4-5.65-4c-2.967,0-5.431,2.167-5.91,5H16
	c-1.654,0-3-1.346-3-3c0-1.612,1.281-2.921,2.877-2.988l39.148-0.012c2.751,0,4.988-2.237,4.988-4.987V13.506L11.682,13.519z
	 M4,11.506c-1.103,0-2-0.897-2-2s0.897-2,2-2s2,0.897,2,2S5.103,11.506,4,11.506z M13.012,22.506c-0.552,0-1-0.448-1-1s0.448-1,1-1
	c0.552,0,1,0.448,1,1S13.565,22.506,13.012,22.506z M13.012,16.506c-0.552,0-1-0.448-1-1s0.448-1,1-1c0.552,0,1,0.448,1,1
	S13.565,16.506,13.012,16.506z M16.012,37.506c-0.552,0-1-0.448-1-1s0.448-1,1-1c0.552,0,1,0.448,1,1S16.565,37.506,16.012,37.506z
	 M16.012,31.506c-0.552,0-1-0.448-1-1s0.448-1,1-1c0.552,0,1,0.448,1,1S16.565,31.506,16.012,31.506z M16.012,25.506
	c-0.552,0-1-0.448-1-1s0.448-1,1-1c0.552,0,1,0.448,1,1S16.565,25.506,16.012,25.506z M16.012,19.506c-0.552,0-1-0.448-1-1
	s0.448-1,1-1c0.552,0,1,0.448,1,1S16.565,19.506,16.012,19.506z M19.012,34.506c-0.552,0-1-0.448-1-1s0.448-1,1-1
	c0.552,0,1,0.448,1,1S19.565,34.506,19.012,34.506z M19.012,28.506c-0.552,0-1-0.448-1-1s0.448-1,1-1c0.552,0,1,0.448,1,1
	S19.565,28.506,19.012,28.506z M19.012,22.506c-0.552,0-1-0.448-1-1s0.448-1,1-1c0.552,0,1,0.448,1,1S19.565,22.506,19.012,22.506z
	 M19.012,16.506c-0.552,0-1-0.448-1-1s0.448-1,1-1c0.552,0,1,0.448,1,1S19.565,16.506,19.012,16.506z M22.012,37.506
	c-0.552,0-1-0.448-1-1s0.448-1,1-1c0.552,0,1,0.448,1,1S22.565,37.506,22.012,37.506z M22.012,31.506c-0.552,0-1-0.448-1-1
	s0.448-1,1-1c0.552,0,1,0.448,1,1S22.565,31.506,22.012,31.506z M22.012,25.506c-0.552,0-1-0.448-1-1s0.448-1,1-1
	c0.552,0,1,0.448,1,1S22.565,25.506,22.012,25.506z M22.012,19.506c-0.552,0-1-0.448-1-1s0.448-1,1-1c0.552,0,1,0.448,1,1
	S22.565,19.506,22.012,19.506z M25.012,34.506c-0.552,0-1-0.448-1-1s0.448-1,1-1c0.552,0,1,0.448,1,1S25.565,34.506,25.012,34.506z
	 M25.012,28.506c-0.552,0-1-0.448-1-1s0.448-1,1-1c0.552,0,1,0.448,1,1S25.565,28.506,25.012,28.506z M25.012,22.506
	c-0.552,0-1-0.448-1-1s0.448-1,1-1c0.552,0,1,0.448,1,1S25.565,22.506,25.012,22.506z M25.012,16.506c-0.552,0-1-0.448-1-1
	s0.448-1,1-1c0.552,0,1,0.448,1,1S25.565,16.506,25.012,16.506z M28.012,37.506c-0.552,0-1-0.448-1-1s0.448-1,1-1
	c0.552,0,1,0.448,1,1S28.565,37.506,28.012,37.506z M28.012,31.506c-0.552,0-1-0.448-1-1s0.448-1,1-1c0.552,0,1,0.448,1,1
	S28.565,31.506,28.012,31.506z M28.012,25.506c-0.552,0-1-0.448-1-1s0.448-1,1-1c0.552,0,1,0.448,1,1S28.565,25.506,28.012,25.506z
	 M28.012,19.506c-0.552,0-1-0.448-1-1s0.448-1,1-1c0.552,0,1,0.448,1,1S28.565,19.506,28.012,19.506z M31.012,34.506
	c-0.552,0-1-0.448-1-1s0.448-1,1-1c0.552,0,1,0.448,1,1S31.565,34.506,31.012,34.506z M31.012,28.506c-0.552,0-1-0.448-1-1
	s0.448-1,1-1c0.552,0,1,0.448,1,1S31.565,28.506,31.012,28.506z M31.012,22.506c-0.552,0-1-0.448-1-1s0.448-1,1-1
	c0.552,0,1,0.448,1,1S31.565,22.506,31.012,22.506z M31.012,16.506c-0.552,0-1-0.448-1-1s0.448-1,1-1c0.552,0,1,0.448,1,1
	S31.565,16.506,31.012,16.506z M34.012,37.506c-0.552,0-1-0.448-1-1s0.448-1,1-1c0.552,0,1,0.448,1,1S34.565,37.506,34.012,37.506z
	 M34.012,31.506c-0.552,0-1-0.448-1-1s0.448-1,1-1c0.552,0,1,0.448,1,1S34.565,31.506,34.012,31.506z M34.012,25.506
	c-0.552,0-1-0.448-1-1s0.448-1,1-1c0.552,0,1,0.448,1,1S34.565,25.506,34.012,25.506z M34.012,19.506c-0.552,0-1-0.448-1-1
	s0.448-1,1-1c0.552,0,1,0.448,1,1S34.565,19.506,34.012,19.506z M37.012,34.506c-0.552,0-1-0.448-1-1s0.448-1,1-1
	c0.552,0,1,0.448,1,1S37.565,34.506,37.012,34.506z M37.012,28.506c-0.552,0-1-0.448-1-1s0.448-1,1-1c0.552,0,1,0.448,1,1
	S37.565,28.506,37.012,28.506z M37.012,22.506c-0.552,0-1-0.448-1-1s0.448-1,1-1c0.552,0,1,0.448,1,1S37.565,22.506,37.012,22.506z
	 M37.012,16.506c-0.552,0-1-0.448-1-1s0.448-1,1-1c0.552,0,1,0.448,1,1S37.565,16.506,37.012,16.506z M40.012,37.506
	c-0.552,0-1-0.448-1-1s0.448-1,1-1c0.552,0,1,0.448,1,1S40.565,37.506,40.012,37.506z M40.012,31.506c-0.552,0-1-0.448-1-1
	s0.448-1,1-1c0.552,0,1,0.448,1,1S40.565,31.506,40.012,31.506z M40.012,25.506c-0.552,0-1-0.448-1-1s0.448-1,1-1
	c0.552,0,1,0.448,1,1S40.565,25.506,40.012,25.506z M40.012,19.506c-0.552,0-1-0.448-1-1s0.448-1,1-1c0.552,0,1,0.448,1,1
	S40.565,19.506,40.012,19.506z M43.012,34.506c-0.552,0-1-0.448-1-1s0.448-1,1-1c0.552,0,1,0.448,1,1S43.565,34.506,43.012,34.506z
	 M43.012,28.506c-0.552,0-1-0.448-1-1s0.448-1,1-1c0.552,0,1,0.448,1,1S43.565,28.506,43.012,28.506z M43.012,22.506
	c-0.552,0-1-0.448-1-1s0.448-1,1-1c0.552,0,1,0.448,1,1S43.565,22.506,43.012,22.506z M43.012,16.506c-0.552,0-1-0.448-1-1
	s0.448-1,1-1c0.552,0,1,0.448,1,1S43.565,16.506,43.012,16.506z M46.012,37.506c-0.552,0-1-0.448-1-1s0.448-1,1-1
	c0.552,0,1,0.448,1,1S46.565,37.506,46.012,37.506z M46.012,31.506c-0.552,0-1-0.448-1-1s0.448-1,1-1c0.552,0,1,0.448,1,1
	S46.565,31.506,46.012,31.506z M46.012,25.506c-0.552,0-1-0.448-1-1s0.448-1,1-1c0.552,0,1,0.448,1,1S46.565,25.506,46.012,25.506z
	 M46.012,19.506c-0.552,0-1-0.448-1-1s0.448-1,1-1c0.552,0,1,0.448,1,1S46.565,19.506,46.012,19.506z M49.012,34.506
	c-0.552,0-1-0.448-1-1s0.448-1,1-1c0.552,0,1,0.448,1,1S49.565,34.506,49.012,34.506z M49.012,28.506c-0.552,0-1-0.448-1-1
	s0.448-1,1-1c0.552,0,1,0.448,1,1S49.565,28.506,49.012,28.506z M49.012,22.506c-0.552,0-1-0.448-1-1s0.448-1,1-1
	c0.552,0,1,0.448,1,1S49.565,22.506,49.012,22.506z M49.012,16.506c-0.552,0-1-0.448-1-1s0.448-1,1-1c0.552,0,1,0.448,1,1
	S49.565,16.506,49.012,16.506z M52.012,37.506c-0.552,0-1-0.448-1-1s0.448-1,1-1c0.552,0,1,0.448,1,1S52.565,37.506,52.012,37.506z
	 M52.012,31.506c-0.552,0-1-0.448-1-1s0.448-1,1-1c0.552,0,1,0.448,1,1S52.565,31.506,52.012,31.506z M52.012,25.506
	c-0.552,0-1-0.448-1-1s0.448-1,1-1c0.552,0,1,0.448,1,1S52.565,25.506,52.012,25.506z M52.012,19.506c-0.552,0-1-0.448-1-1
	s0.448-1,1-1c0.552,0,1,0.448,1,1S52.565,19.506,52.012,19.506z M55.012,34.506c-0.552,0-1-0.448-1-1s0.448-1,1-1
	c0.552,0,1,0.448,1,1S55.565,34.506,55.012,34.506z M55.012,28.506c-0.552,0-1-0.448-1-1s0.448-1,1-1c0.552,0,1,0.448,1,1
	S55.565,28.506,55.012,28.506z M55.012,22.506c-0.552,0-1-0.448-1-1s0.448-1,1-1c0.552,0,1,0.448,1,1S55.565,22.506,55.012,22.506z
	 M55.012,16.506c-0.552,0-1-0.448-1-1s0.448-1,1-1c0.552,0,1,0.448,1,1S55.565,16.506,55.012,16.506z M58.012,37.506
	c-0.552,0-1-0.448-1-1s0.448-1,1-1c0.552,0,1,0.448,1,1S58.565,37.506,58.012,37.506z M58.012,31.506c-0.552,0-1-0.448-1-1
	s0.448-1,1-1c0.552,0,1,0.448,1,1S58.565,31.506,58.012,31.506z M58.012,25.506c-0.552,0-1-0.448-1-1s0.448-1,1-1
	c0.552,0,1,0.448,1,1S58.565,25.506,58.012,25.506z M58.012,19.506c-0.552,0-1-0.448-1-1s0.448-1,1-1c0.552,0,1,0.448,1,1
	S58.565,19.506,58.012,19.506z"/>
<g>
</g>
<g>
</g>
<g>
</g>
<g>
</g>
<g>
</g>
<g>
</g>
<g>
</g>
<g>
</g>
<g>
</g>
<g>
</g>
<g>
</g>
<g>
</g>
<g>
</g>
<g>
</g>
<g>
</g>
</svg>
